<svg xmlns="http://www.w3.org/2000/svg" xmlns:xlink="http://www.w3.org/1999/xlink" viewBox="0 0 1072.78 630.4"><defs><style>.cls-1,.cls-4,.cls-5,.cls-6{fill:none;}.cls-2{clip-path:url(#clip-path);}.cls-3{clip-path:url(#clip-path-2);}.cls-4{stroke:#d9d9d8;}.cls-4,.cls-5,.cls-6{stroke-linejoin:round;stroke-width:3.44px;}.cls-5{stroke:#f3f3f3;}.cls-6{stroke:#c0bfbf;}.cls-7,.cls-9{fill:#a32035;}.cls-8{clip-path:url(#clip-path-8);}.cls-9{stroke:#9e1f63;stroke-miterlimit:10;stroke-width:3px;}.cls-10,.cls-15,.cls-16,.cls-20{isolation:isolate;fill:#595a5a;}.cls-10,.cls-15{font-size:29.46px;}.cls-10,.cls-16,.cls-20{font-family:Gotham-Book, Gotham;}.cls-11{letter-spacing:-0.02em;}.cls-12{letter-spacing:-0.01em;}.cls-13{letter-spacing:-0.05em;}.cls-14{letter-spacing:-0.01em;}.cls-15{font-family:ArialMT, Arial;}.cls-16{font-size:18.87px;}.cls-17{letter-spacing:-0.02em;}.cls-18{letter-spacing:-0.05em;}.cls-19{letter-spacing:0em;}.cls-20{font-size:21.18px;}.cls-21{letter-spacing:-0.02em;}.cls-22{letter-spacing:-0.02em;}.cls-23{letter-spacing:-0.06em;}.cls-24{letter-spacing:-0.03em;}.cls-25{letter-spacing:0em;}.cls-26{letter-spacing:-0.13em;}.cls-27{letter-spacing:-0.02em;}.cls-28{letter-spacing:-0.02em;}.cls-29{letter-spacing:-0.01em;}.cls-30{letter-spacing:0em;}.cls-31{letter-spacing:-0.06em;}.cls-32{letter-spacing:-0.03em;}.cls-33{letter-spacing:0em;}.cls-34{letter-spacing:-0.13em;}.cls-35{letter-spacing:-0.02em;}</style><clipPath id="clip-path" transform="translate(1.03 1.03)"><rect class="cls-1" width="1070.72" height="628.35"/></clipPath><clipPath id="clip-path-2" transform="translate(1.03 1.03)"><rect class="cls-1" width="1069.8" height="626.97"/></clipPath><clipPath id="clip-path-8" transform="translate(1.03 1.03)"><rect class="cls-1" x="114.62" y="105.42" width="922.96" height="434.55"/></clipPath></defs><g id="Layer_2" data-name="Layer 2"><g id="Regression"><g class="cls-2"><g class="cls-3"><path class="cls-4" d="M114.85,478.07h923m-923-62.14h923m-923-61.69h923m-923-62.14h923M114.85,230h923m-923-62.15h923m-923-62.15h923" transform="translate(1.03 1.03)"/></g><g class="cls-3"><path class="cls-5" d="M145.73,105.65V540.2m30.84-434.55V540.2M207,105.65V540.2m30.84-434.55V540.2m61.69-434.55V540.2m30.84-434.55V540.2m30.84-434.55V540.2m30.39-434.55V540.2m61.68-434.55V540.2m30.85-434.55V540.2m30.84-434.55V540.2M545.3,105.65V540.2M607,105.65V540.2m30.84-434.55V540.2m30.84-434.55V540.2m30.85-434.55V540.2m61.22-434.55V540.2m30.85-434.55V540.2m30.84-434.55V540.2m30.84-434.55V540.2M914.5,105.65V540.2m30.84-434.55V540.2m30.85-434.55V540.2M1007,105.65V540.2" transform="translate(1.03 1.03)"/></g><g class="cls-3"><path class="cls-4" d="M268.64,105.65V540.2M422.39,105.65V540.2M576.15,105.65V540.2M729.9,105.65V540.2M883.66,105.65V540.2m154.15-434.55V540.2" transform="translate(1.03 1.03)"/></g><g class="cls-3"><path class="cls-6" d="M114.85,540.2V105.65" transform="translate(1.03 1.03)"/></g><g class="cls-3"><path class="cls-6" d="M114.85,540.2h923" transform="translate(1.03 1.03)"/></g><g class="cls-3"><path class="cls-7" d="M271.16,260.6a5.07,5.07,0,1,1-5.06-5.06A5.06,5.06,0,0,1,271.16,260.6Z" transform="translate(1.03 1.03)"/><path class="cls-7" d="M501.79,260.6a5.07,5.07,0,1,1-5.07-5.06A5.06,5.06,0,0,1,501.79,260.6Z" transform="translate(1.03 1.03)"/><path class="cls-7" d="M784.43,260.6a5.07,5.07,0,1,1-5.07-5.06A5.06,5.06,0,0,1,784.43,260.6Z" transform="translate(1.03 1.03)"/><path class="cls-7" d="M176.79,260.6a5.06,5.06,0,1,1-5.06-5.06A5.06,5.06,0,0,1,176.79,260.6Z" transform="translate(1.03 1.03)"/><path class="cls-7" d="M782.13,260.6a5.07,5.07,0,1,1-5.07-5.06A5.06,5.06,0,0,1,782.13,260.6Z" transform="translate(1.03 1.03)"/><path class="cls-7" d="M1023.34,161.63a5.07,5.07,0,1,1-5.07-5.06A5.07,5.07,0,0,1,1023.34,161.63Z" transform="translate(1.03 1.03)"/><path class="cls-7" d="M648.63,161.63a5.07,5.07,0,1,1-5.06-5.06A5.07,5.07,0,0,1,648.63,161.63Z" transform="translate(1.03 1.03)"/><path class="cls-7" d="M903.19,161.63a5.07,5.07,0,1,1-5.06-5.06A5.07,5.07,0,0,1,903.19,161.63Z" transform="translate(1.03 1.03)"/><path class="cls-7" d="M980.07,161.63a5.07,5.07,0,1,1-5.07-5.06A5.07,5.07,0,0,1,980.07,161.63Z" transform="translate(1.03 1.03)"/><path class="cls-7" d="M912.86,161.63a5.07,5.07,0,1,1-5.07-5.06A5.07,5.07,0,0,1,912.86,161.63Z" transform="translate(1.03 1.03)"/><path class="cls-7" d="M377,181.42a5.07,5.07,0,1,1-5.07-5.06A5.07,5.07,0,0,1,377,181.42Z" transform="translate(1.03 1.03)"/><path class="cls-7" d="M521.12,181.42a5.07,5.07,0,1,1-5.06-5.06A5.07,5.07,0,0,1,521.12,181.42Z" transform="translate(1.03 1.03)"/><path class="cls-7" d="M732.41,181.42a5.07,5.07,0,1,1-5.06-5.06A5.07,5.07,0,0,1,732.41,181.42Z" transform="translate(1.03 1.03)"/><path class="cls-7" d="M780.74,181.42a5.06,5.06,0,1,1-5.06-5.06A5.07,5.07,0,0,1,780.74,181.42Z" transform="translate(1.03 1.03)"/><path class="cls-7" d="M501.79,181.42a5.07,5.07,0,1,1-5.07-5.06A5.07,5.07,0,0,1,501.79,181.42Z" transform="translate(1.03 1.03)"/><path class="cls-7" d="M253.67,375.22a5.07,5.07,0,1,1-5.07-5.06A5.07,5.07,0,0,1,253.67,375.22Z" transform="translate(1.03 1.03)"/><path class="cls-7" d="M330.54,375.22a5.06,5.06,0,1,1-5.06-5.06A5.07,5.07,0,0,1,330.54,375.22Z" transform="translate(1.03 1.03)"/><path class="cls-7" d="M308.45,375.22a5.07,5.07,0,1,1-5.07-5.06A5.07,5.07,0,0,1,308.45,375.22Z" transform="translate(1.03 1.03)"/><path class="cls-7" d="M120.17,314.46a5.06,5.06,0,1,1-5.06-5.06A5.07,5.07,0,0,1,120.17,314.46Z" transform="translate(1.03 1.03)"/><path class="cls-7" d="M120.17,314.46a5.06,5.06,0,1,1-5.06-5.06A5.07,5.07,0,0,1,120.17,314.46Z" transform="translate(1.03 1.03)"/></g><g class="cls-8"><path class="cls-9" d="M115.31,319.24,1018.48,150.3" transform="translate(1.03 1.03)"/></g><g class="cls-3"><text class="cls-10" transform="translate(648.24 377.58)">y = <tspan class="cls-11" x="53.94" y="0">0.</tspan><tspan class="cls-12" x="81.05" y="0">0</tspan><tspan x="101.96" y="0">116x + </tspan><tspan class="cls-11" x="195.56" y="0">0</tspan><tspan class="cls-13" x="216.04" y="0">.</tspan><tspan x="221.78" y="0">17</tspan><tspan class="cls-14" x="249.89" y="0">7</tspan><tspan x="267.15" y="0">8</tspan></text></g><g class="cls-3"><text class="cls-10" transform="translate(703.77 410.72)">R</text></g><g class="cls-3"><text class="cls-15" transform="translate(725.12 410.72)">²</text></g><g class="cls-3"><text class="cls-10" transform="translate(746 410.72)">= <tspan class="cls-11" x="27.69" y="0">0</tspan><tspan x="48.17" y="0">.5084</tspan></text></g><g class="cls-3"><text class="cls-16" transform="translate(86.42 547.9)">0</text></g><g class="cls-3"><text class="cls-16" transform="translate(56.56 485.75)"><tspan class="cls-17">0.</tspan><tspan x="17.36" y="0">05</tspan></text></g><g class="cls-3"><text class="cls-16" transform="translate(74.97 423.61)"><tspan class="cls-17">0</tspan><tspan class="cls-18" x="13.12" y="0">.</tspan><tspan x="16.8" y="0">1</tspan></text></g><g class="cls-3"><text class="cls-16" transform="translate(63.35 361.47)"><tspan class="cls-17">0</tspan><tspan class="cls-18" x="13.12" y="0">.</tspan><tspan x="16.8" y="0">15</tspan></text></g><g class="cls-3"><text class="cls-16" transform="translate(70.39 299.32)"><tspan class="cls-17">0</tspan><tspan x="13.12" y="0">.2</tspan></text></g><g class="cls-3"><text class="cls-16" transform="translate(58.77 237.64)"><tspan class="cls-17">0</tspan><tspan x="13.12" y="0">.25</tspan></text></g><g class="cls-3"><text class="cls-16" transform="translate(70.13 175.49)"><tspan class="cls-17">0</tspan><tspan x="13.12" y="0">.3</tspan></text></g><g class="cls-3"><text class="cls-16" transform="translate(58.51 113.35)"><tspan class="cls-17">0</tspan><tspan x="13.12" y="0">.</tspan><tspan class="cls-19" x="17.74" y="0">3</tspan><tspan x="29.22" y="0">5</tspan></text></g><g class="cls-3"><text class="cls-16" transform="translate(109.11 569.99)">0</text></g><g class="cls-3"><text class="cls-16" transform="translate(264.01 569.99)">2</text></g><g class="cls-3"><text class="cls-16" transform="translate(417.12 569.99)">4</text></g><g class="cls-3"><text class="cls-16" transform="translate(571.15 569.99)">6</text></g><g class="cls-3"><text class="cls-16" transform="translate(725.11 569.99)">8</text></g><g class="cls-3"><text class="cls-16" transform="translate(874.7 569.99)">10</text></g><g class="cls-3"><text class="cls-16" transform="translate(1029.6 569.99)">12</text></g><g class="cls-3"><text class="cls-20" transform="translate(47 475.63) rotate(-90)">F<tspan class="cls-21" x="13.89" y="0">r</tspan><tspan x="21.94" y="0">action of Bin Filled per d</tspan><tspan class="cls-22" x="280.67" y="0">a</tspan><tspan x="292.51" y="0">y</tspan></text></g><g class="cls-3"><text class="cls-20" transform="translate(421.08 598.99)"><tspan class="cls-23">A</tspan><tspan class="cls-24" x="15.39" y="0">v</tspan><tspan class="cls-25" x="27.19" y="0">e</tspan><tspan class="cls-21" x="39.72" y="0">r</tspan><tspan x="47.77" y="0">age </tspan><tspan class="cls-26" x="92.98" y="0">T</tspan><tspan class="cls-25" x="104.01" y="0">otal Flights per d</tspan><tspan class="cls-27" x="283.59" y="0">a</tspan><tspan x="295.43" y="0">y</tspan></text></g><g class="cls-3"><text class="cls-10" transform="translate(165.25 43.84)">F<tspan class="cls-28" x="19.33" y="0">r</tspan><tspan x="30.52" y="0">action of Bin filled per d</tspan><tspan class="cls-11" x="381.98" y="0">a</tspan><tspan x="398.45" y="0">y again</tspan><tspan class="cls-29" x="504.27" y="0">s</tspan><tspan class="cls-30" x="518.65" y="0">t </tspan><tspan class="cls-31" x="539.39" y="0">A</tspan><tspan class="cls-32" x="560.81" y="0">v</tspan><tspan x="577.22" y="0">e</tspan><tspan class="cls-28" x="594.66" y="0">r</tspan><tspan class="cls-33" x="605.85" y="0">age </tspan><tspan class="cls-34" x="668.75" y="0">T</tspan><tspan x="684.1" y="0">otal</tspan></text></g><g class="cls-3"><text class="cls-10" transform="translate(426.27 75.6)">Flights per d<tspan class="cls-35" x="185.28" y="0">a</tspan><tspan class="cls-30" x="201.75" y="0">y</tspan></text></g><rect class="cls-4" x="1.72" y="1.72" width="1069.34" height="626.97"/></g></g></g></svg>