<svg xmlns="http://www.w3.org/2000/svg" xmlns:xlink="http://www.w3.org/1999/xlink" viewBox="0 0 1027.79 612.76"><defs><style>.cls-1{fill:none;}.cls-2{font-size:24.45px;fill:#231f20;}.cls-16,.cls-2{font-family:Gotham-Bold, Gotham;font-weight:700;}.cls-3{font-size:26.1px;}.cls-12,.cls-3{font-family:Gotham-Book, Gotham;}.cls-4{opacity:0.25;}.cls-10,.cls-4{isolation:isolate;}.cls-5{clip-path:url(#clip-path);}.cls-6{clip-path:url(#clip-path-2);}.cls-7{clip-path:url(#clip-path-3);}.cls-8{clip-path:url(#clip-path-4);}.cls-9{clip-path:url(#clip-path-5);}.cls-10{opacity:0.6;}.cls-11{clip-path:url(#clip-path-6);}.cls-12{font-size:16.78px;}.cls-13{fill:#571645;}.cls-13,.cls-15{stroke:#571645;stroke-miterlimit:10;stroke-width:0.5px;}.cls-14{fill:#ffc40c;}.cls-15{fill:#ffc514;}.cls-16{font-size:23px;fill:#180c17;}.cls-17{font-size:21.68px;font-family:Gotham-Light, Gotham Light;font-weight:300;}.cls-18{letter-spacing:-0.03em;}.cls-19{letter-spacing:-0.01em;}.cls-20{letter-spacing:-0.01em;}.cls-21{letter-spacing:-0.02em;}</style><clipPath id="clip-path"><rect class="cls-1" x="45.1" y="36.51" width="919.93" height="2.68"/></clipPath><clipPath id="clip-path-2"><rect class="cls-1" x="45.1" y="119.28" width="919.93" height="2.24"/></clipPath><clipPath id="clip-path-3"><rect class="cls-1" x="45.1" y="202.51" width="919.93" height="2.24"/></clipPath><clipPath id="clip-path-4"><rect class="cls-1" x="45.1" y="284.83" width="919.93" height="2.24"/></clipPath><clipPath id="clip-path-5"><rect class="cls-1" x="45.1" y="367.16" width="919.93" height="2.24"/></clipPath><clipPath id="clip-path-6"><rect class="cls-1" x="45.1" y="450.39" width="919.93" height="2.24"/></clipPath></defs><g id="Layer_2" data-name="Layer 2"><g id="Final_Optimization_Model" data-name="Final Optimization Model"><text class="cls-2" transform="translate(191.47 560.58)">Shift 1: <tspan x="-33.32" y="35.73">8am to 5pm</tspan></text><text class="cls-2" transform="translate(595.75 560.26)">Shift 2: <tspan x="-34.5" y="35.73">5pm to 11pm</tspan></text><text class="cls-2" transform="translate(857.1 552.88)">Shift 3: <tspan x="-33.5" y="35.73">11pm to 8am</tspan></text><text class="cls-3" transform="translate(39.76 526.97) rotate(-45)">P</text><text class="cls-3" transform="translate(52.6 514.13) rotate(-45)">a</text><text class="cls-3" transform="translate(64.23 502.49) rotate(-45)">i</text><text class="cls-3" transform="translate(69.2 497.53) rotate(-45)">r</text><text class="cls-3" transform="translate(77.74 488.98) rotate(-45)"> </text><text class="cls-3" transform="translate(83.45 483.28) rotate(-45)">1</text><text class="cls-3" transform="translate(105.92 526.97) rotate(-45)">P</text><text class="cls-3" transform="translate(118.77 514.13) rotate(-45)">a</text><text class="cls-3" transform="translate(130.4 502.49) rotate(-45)">i</text><text class="cls-3" transform="translate(135.37 497.53) rotate(-45)">r</text><text class="cls-3" transform="translate(143.91 488.98) rotate(-45)"> </text><text class="cls-3" transform="translate(149.61 483.28) rotate(-45)">2</text><text class="cls-3" transform="translate(172.09 526.97) rotate(-45)">P</text><text class="cls-3" transform="translate(184.94 514.13) rotate(-45)">a</text><text class="cls-3" transform="translate(196.57 502.49) rotate(-45)">i</text><text class="cls-3" transform="translate(201.53 497.53) rotate(-45)">r</text><text class="cls-3" transform="translate(210.08 488.98) rotate(-45)"> </text><text class="cls-3" transform="translate(215.78 483.28) rotate(-45)">3</text><text class="cls-3" transform="translate(238.26 526.97) rotate(-45)">P</text><text class="cls-3" transform="translate(251.11 514.13) rotate(-45)">a</text><text class="cls-3" transform="translate(262.74 502.49) rotate(-45)">i</text><text class="cls-3" transform="translate(267.7 497.53) rotate(-45)">r</text><text class="cls-3" transform="translate(276.25 488.99) rotate(-45)"> </text><text class="cls-3" transform="translate(281.95 483.28) rotate(-45)">4</text><text class="cls-3" transform="translate(304.43 526.97) rotate(-45)">P</text><text class="cls-3" transform="translate(317.27 514.13) rotate(-45)">a</text><text class="cls-3" transform="translate(328.91 502.49) rotate(-45)">i</text><text class="cls-3" transform="translate(333.87 497.53) rotate(-45)">r</text><text class="cls-3" transform="translate(342.41 488.98) rotate(-45)"> </text><text class="cls-3" transform="translate(348.12 483.28) rotate(-45)">5</text><text class="cls-3" transform="translate(370.59 526.97) rotate(-45)">P</text><text class="cls-3" transform="translate(383.44 514.13) rotate(-45)">a</text><text class="cls-3" transform="translate(395.07 502.49) rotate(-45)">i</text><text class="cls-3" transform="translate(400.04 497.53) rotate(-45)">r</text><text class="cls-3" transform="translate(408.58 488.98) rotate(-45)"> </text><text class="cls-3" transform="translate(414.28 483.28) rotate(-45)">6</text><text class="cls-3" transform="translate(502.93 526.97) rotate(-45)">P</text><text class="cls-3" transform="translate(515.77 514.13) rotate(-45)">a</text><text class="cls-3" transform="translate(527.41 502.49) rotate(-45)">i</text><text class="cls-3" transform="translate(532.37 497.53) rotate(-45)">r</text><text class="cls-3" transform="translate(540.92 488.98) rotate(-45)"> </text><text class="cls-3" transform="translate(546.62 483.28) rotate(-45)">1</text><text class="cls-3" transform="translate(569.1 526.97) rotate(-45)">P</text><text class="cls-3" transform="translate(581.94 514.13) rotate(-45)">a</text><text class="cls-3" transform="translate(593.57 502.49) rotate(-45)">i</text><text class="cls-3" transform="translate(598.54 497.53) rotate(-45)">r</text><text class="cls-3" transform="translate(607.08 488.98) rotate(-45)"> </text><text class="cls-3" transform="translate(612.79 483.28) rotate(-45)">2</text><text class="cls-3" transform="translate(635.26 526.97) rotate(-45)">P</text><text class="cls-3" transform="translate(648.11 514.12) rotate(-45)">a</text><text class="cls-3" transform="translate(659.74 502.49) rotate(-45)">i</text><text class="cls-3" transform="translate(664.7 497.53) rotate(-45)">r</text><text class="cls-3" transform="translate(673.25 488.98) rotate(-45)"> </text><text class="cls-3" transform="translate(678.95 483.28) rotate(-45)">3</text><text class="cls-3" transform="translate(701.43 526.97) rotate(-45)">P</text><text class="cls-3" transform="translate(714.28 514.13) rotate(-45)">a</text><text class="cls-3" transform="translate(725.91 502.49) rotate(-45)">i</text><text class="cls-3" transform="translate(730.87 497.53) rotate(-45)">r</text><text class="cls-3" transform="translate(739.42 488.98) rotate(-45)"> </text><text class="cls-3" transform="translate(745.12 483.28) rotate(-45)">4</text><text class="cls-3" transform="translate(833.77 526.97) rotate(-45)">P</text><text class="cls-3" transform="translate(846.61 514.13) rotate(-45)">a</text><text class="cls-3" transform="translate(858.24 502.49) rotate(-45)">i</text><text class="cls-3" transform="translate(863.21 497.53) rotate(-45)">r</text><text class="cls-3" transform="translate(871.75 488.98) rotate(-45)"> </text><text class="cls-3" transform="translate(877.46 483.28) rotate(-45)">1</text><text class="cls-3" transform="translate(899.94 526.97) rotate(-45)">P</text><text class="cls-3" transform="translate(912.78 514.13) rotate(-45)">a</text><text class="cls-3" transform="translate(924.41 502.49) rotate(-45)">i</text><text class="cls-3" transform="translate(929.38 497.53) rotate(-45)">r</text><text class="cls-3" transform="translate(937.92 488.98) rotate(-45)"> </text><text class="cls-3" transform="translate(943.63 483.28) rotate(-45)">2</text><g class="cls-4"><g class="cls-5"><rect x="45.45" y="37.38" width="918.82" height="0.94"/></g></g><g class="cls-4"><g class="cls-6"><rect x="45.45" y="120.09" width="918.82" height="0.94"/></g></g><g class="cls-4"><g class="cls-7"><rect x="45.45" y="202.81" width="918.82" height="0.94"/></g></g><g class="cls-4"><g class="cls-8"><rect x="45.45" y="285.52" width="918.82" height="0.94"/></g></g><g class="cls-4"><g class="cls-9"><rect x="45.45" y="368.23" width="918.82" height="0.94"/></g></g><g class="cls-10"><g class="cls-11"><rect x="45.45" y="450.95" width="918.82" height="0.94"/></g></g><text class="cls-12" transform="translate(0 43.17)">500</text><text class="cls-12" transform="translate(14.4 79.75)"> </text><text class="cls-12" transform="translate(0 123.97)">400</text><text class="cls-12" transform="translate(14.4 162.41)"> </text><text class="cls-12" transform="translate(0 206.63)">300</text><text class="cls-12" transform="translate(14.4 245.07)"> </text><text class="cls-12" transform="translate(0 289.29)">200</text><text class="cls-12" transform="translate(14.4 327.73)"> </text><text class="cls-12" transform="translate(0 370.09)">100</text><text class="cls-12" transform="translate(14.4 410.39)"> </text><text class="cls-12" transform="translate(14.39 450.88)">0</text><text class="cls-12" transform="translate(14.4 450.1)"> </text><path class="cls-13" d="M50.59,451.42V58.65a4.86,4.86,0,0,1,.35-1.81,4.69,4.69,0,0,1,1-1.53,4.54,4.54,0,0,1,1.53-1,4.68,4.68,0,0,1,1.81-.36h49.62a4.71,4.71,0,0,1,1.81.36,4.74,4.74,0,0,1,2.91,4.37V451.42Z"/><path class="cls-13" d="M116.72,451.42V58.66a4.68,4.68,0,0,1,.36-1.81,4.63,4.63,0,0,1,1-1.54,4.73,4.73,0,0,1,1.52-1,4.66,4.66,0,0,1,1.8-.36h49.2a4.66,4.66,0,0,1,1.8.36,4.73,4.73,0,0,1,1.52,1,4.78,4.78,0,0,1,1,1.54,4.68,4.68,0,0,1,.36,1.81V451.42Z"/><path class="cls-13" d="M183.3,451.42V58.65a4.68,4.68,0,0,1,.36-1.81,4.49,4.49,0,0,1,1-1.53,4.6,4.6,0,0,1,1.52-1,4.66,4.66,0,0,1,1.8-.36h49.24a4.66,4.66,0,0,1,1.8.36,4.6,4.6,0,0,1,1.52,1,4.66,4.66,0,0,1,1,1.53,4.86,4.86,0,0,1,.35,1.81V451.42Z"/><path class="cls-13" d="M248.3,451.42V58.66a4.51,4.51,0,0,1,.37-1.81,4.66,4.66,0,0,1,1.06-1.54,4.88,4.88,0,0,1,1.58-1,5,5,0,0,1,1.87-.36h51.24a5,5,0,0,1,3.45,1.38,4.66,4.66,0,0,1,1.06,1.54,4.51,4.51,0,0,1,.37,1.81V451.42Z"/><path class="cls-13" d="M507.3,451.42V207.54a4.51,4.51,0,0,1,.37-1.81,4.57,4.57,0,0,1,1-1.53,4.66,4.66,0,0,1,1.56-1,4.83,4.83,0,0,1,1.84-.36h50.54a4.83,4.83,0,0,1,1.84.36,4.66,4.66,0,0,1,1.56,1,4.75,4.75,0,0,1,1.05,1.53,4.68,4.68,0,0,1,.36,1.81V451.42Z"/><path class="cls-13" d="M574.53,451.42V207.54a4.68,4.68,0,0,1,.36-1.81,4.58,4.58,0,0,1,1-1.54,4.73,4.73,0,0,1,3.34-1.38h49.61a4.73,4.73,0,0,1,3.34,1.38,4.58,4.58,0,0,1,1,1.54,4.68,4.68,0,0,1,.36,1.81V451.42Z"/><path class="cls-13" d="M640.67,451.42V207.54a4.68,4.68,0,0,1,.36-1.81,4.81,4.81,0,0,1,1-1.54,4.66,4.66,0,0,1,1.53-1,4.71,4.71,0,0,1,1.81-.36H695a4.71,4.71,0,0,1,1.81.36,4.66,4.66,0,0,1,1.53,1,4.81,4.81,0,0,1,1,1.54,4.68,4.68,0,0,1,.36,1.81V451.42Z"/><path class="cls-13" d="M706.3,451.42V207.53a4.64,4.64,0,0,1,1.4-3.34,4.83,4.83,0,0,1,3.4-1.39h50.4a4.83,4.83,0,0,1,1.84.36,4.88,4.88,0,0,1,1.55,1,4.71,4.71,0,0,1,1.41,3.34V451.42Z"/><path class="cls-13" d="M839.3,451.42V58.65a4.71,4.71,0,0,1,.36-1.81A4.71,4.71,0,0,1,844,53.92h49.56a4.71,4.71,0,0,1,1.81.36,4.91,4.91,0,0,1,1.53,1,4.66,4.66,0,0,1,1,1.53,4.71,4.71,0,0,1,.36,1.81V451.42Z"/><path class="cls-13" d="M905.21,451.42V58.65a4.71,4.71,0,0,1,.36-1.81,4.66,4.66,0,0,1,1-1.53,4.8,4.8,0,0,1,1.53-1,4.71,4.71,0,0,1,1.81-.36h49.62a4.69,4.69,0,0,1,3.34,1.39,4.51,4.51,0,0,1,1,1.53,4.71,4.71,0,0,1,.36,1.81V451.42Z"/><rect class="cls-14" x="50.45" y="252.74" width="59.07" height="198.68"/><rect class="cls-14" x="248.3" y="66.92" width="61" height="384.49"/><rect class="cls-14" x="116.86" y="71.22" width="58.44" height="380.2"/><path class="cls-14" d="M706.3,451.42V207.54a4.66,4.66,0,0,1,.65-2.38h58.7a4.66,4.66,0,0,1,.65,2.38V451.42Z"/><rect class="cls-14" x="574.53" y="224.3" width="59.07" height="227.11"/><rect class="cls-14" x="640.67" y="208.77" width="59.07" height="242.64"/><rect class="cls-14" x="507.3" y="267.5" width="60" height="183.92"/><path class="cls-14" d="M905.3,451.42V58.65a5.44,5.44,0,0,1,0-.57H964.1a3.64,3.64,0,0,1,0,.57V451.42Z"/><rect class="cls-14" x="839.3" y="351.38" width="59" height="100.03"/><rect class="cls-15" x="500.05" y="104.78" width="84.63" height="25.39"/><text class="cls-16" transform="translate(500.19 19.55)">Legend<tspan class="cls-17"><tspan x="0" y="35.82" xml:space="preserve">              :</tspan><tspan x="0" y="71.63">E</tspan><tspan class="cls-18" x="14.52" y="71.63">x</tspan><tspan class="cls-19" x="26.12" y="71.63">c</tspan><tspan x="38.17" y="71.63">e</tspan><tspan class="cls-20" x="50.83" y="71.63">s</tspan><tspan x="61.39" y="71.63">s Minu</tspan><tspan class="cls-21" x="129.46" y="71.63">t</tspan><tspan x="137.8" y="71.63">es</tspan><tspan x="0" y="107.45" xml:space="preserve">              :</tspan><tspan x="0" y="143.26">Minu</tspan><tspan class="cls-19" x="50.79" y="143.26">t</tspan><tspan x="59.14" y="143.26">es Used Up</tspan></tspan></text><rect class="cls-13" x="500.05" y="36.14" width="84.63" height="26.33"/><rect class="cls-14" x="183.3" y="66.42" width="58.51" height="385.66"/></g></g></svg>