<svg width="2179" height="1378" xmlns="http://www.w3.org/2000/svg" xmlns:xlink="http://www.w3.org/1999/xlink" overflow="hidden"><defs><clipPath id="clip0"><rect x="16978" y="181" width="2179" height="1378"/></clipPath><clipPath id="clip1"><rect x="16979" y="181" width="2175" height="1375"/></clipPath><clipPath id="clip2"><rect x="16979" y="181" width="2175" height="1375"/></clipPath><clipPath id="clip3"><rect x="16979" y="181" width="2175" height="1375"/></clipPath><clipPath id="clip4"><rect x="16979" y="181" width="2175" height="1375"/></clipPath><clipPath id="clip5"><rect x="16979" y="181" width="2175" height="1375"/></clipPath><clipPath id="clip6"><rect x="17228" y="410" width="1855" height="957"/></clipPath><clipPath id="clip7"><rect x="16979" y="181" width="2175" height="1375"/></clipPath><clipPath id="clip8"><rect x="16979" y="181" width="2175" height="1375"/></clipPath><clipPath id="clip9"><rect x="16979" y="181" width="2175" height="1375"/></clipPath><clipPath id="clip10"><rect x="16979" y="181" width="2175" height="1375"/></clipPath><clipPath id="clip11"><rect x="16979" y="181" width="2175" height="1375"/></clipPath><clipPath id="clip12"><rect x="16979" y="181" width="2175" height="1375"/></clipPath><clipPath id="clip13"><rect x="16979" y="181" width="2175" height="1375"/></clipPath><clipPath id="clip14"><rect x="16979" y="181" width="2175" height="1375"/></clipPath><clipPath id="clip15"><rect x="16979" y="181" width="2175" height="1375"/></clipPath><clipPath id="clip16"><rect x="16979" y="181" width="2175" height="1375"/></clipPath><clipPath id="clip17"><rect x="16979" y="181" width="2175" height="1375"/></clipPath><clipPath id="clip18"><rect x="16979" y="181" width="2175" height="1375"/></clipPath><clipPath id="clip19"><rect x="16979" y="181" width="2175" height="1375"/></clipPath><clipPath id="clip20"><rect x="16979" y="181" width="2175" height="1375"/></clipPath><clipPath id="clip21"><rect x="16979" y="181" width="2175" height="1375"/></clipPath><clipPath id="clip22"><rect x="16979" y="181" width="2175" height="1375"/></clipPath><clipPath id="clip23"><rect x="16979" y="181" width="2175" height="1375"/></clipPath><clipPath id="clip24"><rect x="16979" y="181" width="2175" height="1375"/></clipPath><clipPath id="clip25"><rect x="16979" y="181" width="2175" height="1375"/></clipPath><clipPath id="clip26"><rect x="16979" y="181" width="2175" height="1375"/></clipPath><clipPath id="clip27"><rect x="16979" y="181" width="2175" height="1375"/></clipPath><clipPath id="clip28"><rect x="16979" y="181" width="2175" height="1375"/></clipPath><clipPath id="clip29"><rect x="16979" y="181" width="2175" height="1375"/></clipPath><clipPath id="clip30"><rect x="16979" y="181" width="2175" height="1375"/></clipPath><clipPath id="clip31"><rect x="16979" y="181" width="2175" height="1375"/></clipPath><clipPath id="clip32"><rect x="16979" y="181" width="2175" height="1375"/></clipPath><clipPath id="clip33"><rect x="16979" y="181" width="2175" height="1375"/></clipPath></defs><g clip-path="url(#clip0)" transform="translate(-16978 -181)"><rect x="16979" y="182" width="2176" height="1375" fill="#FFFFFF"/><g clip-path="url(#clip1)"><path d="M17228.5 1261.54 19083.5 1261.54M17228.5 1155.54 19083.5 1155.54M17228.5 1048.53 19083.5 1048.53M17228.5 942.531 19083.5 942.531M17228.5 836.528 19083.5 836.528M17228.5 729.524 19083.5 729.524M17228.5 623.521 19083.5 623.521M17228.5 517.517 19083.5 517.517M17228.5 410.5 19083.5 410.5" stroke="#D9D9D9" stroke-width="3.4375" stroke-linejoin="round" stroke-miterlimit="10" fill="none"/></g><g clip-path="url(#clip2)"><path d="M17493.1 410.5 17493.1 1367.5M17758.1 410.5 17758.1 1367.5M18023.1 410.5 18023.1 1367.5M18288.1 410.5 18288.1 1367.5M18553.1 410.5 18553.1 1367.5M18818.1 410.5 18818.1 1367.5M19083.5 410.5 19083.5 1367.5" stroke="#D9D9D9" stroke-width="3.4375" stroke-linejoin="round" stroke-miterlimit="10" fill="none"/></g><g clip-path="url(#clip3)"><path d="M0 0 0.000360892 957" stroke="#BFBFBF" stroke-width="3.4375" stroke-linejoin="round" stroke-miterlimit="10" fill="none" fill-rule="evenodd" transform="matrix(1 0 0 -1 17228.5 1367.5)"/></g><g clip-path="url(#clip4)"><path d="M17228.5 1367.5 19083.5 1367.5" stroke="#BFBFBF" stroke-width="3.4375" stroke-linejoin="round" stroke-miterlimit="10" fill="none" fill-rule="evenodd"/></g><g clip-path="url(#clip5)"><path d="M17499.8 1068.28C17499.8 1074.36 17494.8 1079.28 17488.8 1079.28 17482.7 1079.28 17477.8 1074.36 17477.8 1068.28 17477.8 1062.21 17482.7 1057.28 17488.8 1057.28 17494.8 1057.28 17499.8 1062.21 17499.8 1068.28Z" stroke="#4472C4" stroke-width="3.4375" stroke-linejoin="round" stroke-miterlimit="10" fill="#4472C4"/><path d="M17897.8 723.283C17897.8 729.358 17892.8 734.283 17886.8 734.283 17880.7 734.283 17875.8 729.358 17875.8 723.283 17875.8 717.208 17880.7 712.284 17886.8 712.284 17892.8 712.284 17897.8 717.208 17897.8 723.283Z" stroke="#4472C4" stroke-width="3.4375" stroke-linejoin="round" stroke-miterlimit="10" fill="#4472C4"/><path d="M18384.8 808.283C18384.8 814.358 18379.8 819.283 18373.8 819.283 18367.7 819.283 18362.8 814.358 18362.8 808.283 18362.8 802.208 18367.7 797.283 18373.8 797.283 18379.8 797.283 18384.8 802.208 18384.8 808.283Z" stroke="#4472C4" stroke-width="3.4375" stroke-linejoin="round" stroke-miterlimit="10" fill="#4472C4"/><path d="M17337.8 849.283C17337.8 855.358 17332.8 860.283 17326.8 860.283 17320.7 860.283 17315.8 855.358 17315.8 849.283 17315.8 843.208 17320.7 838.283 17326.8 838.283 17332.8 838.283 17337.8 843.208 17337.8 849.283Z" stroke="#4472C4" stroke-width="3.4375" stroke-linejoin="round" stroke-miterlimit="10" fill="#4472C4"/><path d="M18380.8 822.283C18380.8 828.358 18375.8 833.283 18369.8 833.283 18363.7 833.283 18358.8 828.358 18358.8 822.283 18358.8 816.208 18363.7 811.284 18369.8 811.284 18375.8 811.284 18380.8 816.208 18380.8 822.283Z" stroke="#4472C4" stroke-width="3.4375" stroke-linejoin="round" stroke-miterlimit="10" fill="#4472C4"/><path d="M18796.8 942.283C18796.8 948.358 18791.8 953.283 18785.8 953.283 18779.7 953.283 18774.8 948.358 18774.8 942.283 18774.8 936.208 18779.7 931.284 18785.8 931.284 18791.8 931.284 18796.8 936.208 18796.8 942.283Z" stroke="#4472C4" stroke-width="3.4375" stroke-linejoin="round" stroke-miterlimit="10" fill="#4472C4"/><path d="M18150.8 608.283C18150.8 614.358 18145.8 619.283 18139.8 619.283 18133.7 619.283 18128.8 614.358 18128.8 608.283 18128.8 602.208 18133.7 597.283 18139.8 597.283 18145.8 597.283 18150.8 602.208 18150.8 608.283Z" stroke="#4472C4" stroke-width="3.4375" stroke-linejoin="round" stroke-miterlimit="10" fill="#4472C4"/><path d="M18589.8 703.283C18589.8 709.358 18584.8 714.283 18578.8 714.283 18572.7 714.283 18567.8 709.358 18567.8 703.283 18567.8 697.208 18572.7 692.284 18578.8 692.284 18584.8 692.284 18589.8 697.208 18589.8 703.283Z" stroke="#4472C4" stroke-width="3.4375" stroke-linejoin="round" stroke-miterlimit="10" fill="#4472C4"/><path d="M18721.8 658.283C18721.8 664.358 18716.8 669.283 18710.8 669.283 18704.7 669.283 18699.8 664.358 18699.8 658.283 18699.8 652.208 18704.7 647.284 18710.8 647.284 18716.8 647.284 18721.8 652.208 18721.8 658.283Z" stroke="#4472C4" stroke-width="3.4375" stroke-linejoin="round" stroke-miterlimit="10" fill="#4472C4"/><path d="M18605.8 481.283C18605.8 487.358 18600.8 492.283 18594.8 492.283 18588.7 492.283 18583.8 487.358 18583.8 481.283 18583.8 475.208 18588.7 470.284 18594.8 470.284 18600.8 470.284 18605.8 475.208 18605.8 481.283Z" stroke="#4472C4" stroke-width="3.4375" stroke-linejoin="round" stroke-miterlimit="10" fill="#4472C4"/><path d="M17682.8 634.283C17682.8 640.358 17677.8 645.283 17671.8 645.283 17665.7 645.283 17660.8 640.358 17660.8 634.283 17660.8 628.208 17665.7 623.284 17671.8 623.284 17677.8 623.284 17682.8 628.208 17682.8 634.283Z" stroke="#4472C4" stroke-width="3.4375" stroke-linejoin="round" stroke-miterlimit="10" fill="#4472C4"/><path d="M18295.8 808.283C18295.8 814.358 18290.8 819.283 18284.8 819.283 18278.7 819.283 18273.8 814.358 18273.8 808.283 18273.8 802.208 18278.7 797.283 18284.8 797.283 18290.8 797.283 18295.8 802.208 18295.8 808.283Z" stroke="#4472C4" stroke-width="3.4375" stroke-linejoin="round" stroke-miterlimit="10" fill="#4472C4"/><path d="M18377.8 703.283C18377.8 709.358 18372.8 714.283 18366.8 714.283 18360.7 714.283 18355.8 709.358 18355.8 703.283 18355.8 697.208 18360.7 692.284 18366.8 692.284 18372.8 692.284 18377.8 697.208 18377.8 703.283Z" stroke="#4472C4" stroke-width="3.4375" stroke-linejoin="round" stroke-miterlimit="10" fill="#4472C4"/><path d="M17897.8 1019.28C17897.8 1025.36 17892.8 1030.28 17886.8 1030.28 17880.7 1030.28 17875.8 1025.36 17875.8 1019.28 17875.8 1013.21 17880.7 1008.28 17886.8 1008.28 17892.8 1008.28 17897.8 1013.21 17897.8 1019.28Z" stroke="#4472C4" stroke-width="3.4375" stroke-linejoin="round" stroke-miterlimit="10" fill="#4472C4"/><path d="M17470.8 777.283C17470.8 783.358 17465.8 788.283 17459.8 788.283 17453.7 788.283 17448.8 783.358 17448.8 777.283 17448.8 771.208 17453.7 766.284 17459.8 766.284 17465.8 766.284 17470.8 771.208 17470.8 777.283Z" stroke="#4472C4" stroke-width="3.4375" stroke-linejoin="round" stroke-miterlimit="10" fill="#4472C4"/><path d="M17602.8 1117.28C17602.8 1123.36 17597.8 1128.28 17591.8 1128.28 17585.7 1128.28 17580.8 1123.36 17580.8 1117.28 17580.8 1111.21 17585.7 1106.28 17591.8 1106.28 17597.8 1106.28 17602.8 1111.21 17602.8 1117.28Z" stroke="#4472C4" stroke-width="3.4375" stroke-linejoin="round" stroke-miterlimit="10" fill="#4472C4"/><path d="M17564.8 1165.28C17564.8 1171.36 17559.8 1176.28 17553.8 1176.28 17547.7 1176.28 17542.8 1171.36 17542.8 1165.28 17542.8 1159.21 17547.7 1154.28 17553.8 1154.28 17559.8 1154.28 17564.8 1159.21 17564.8 1165.28Z" stroke="#4472C4" stroke-width="3.4375" stroke-linejoin="round" stroke-miterlimit="10" fill="#4472C4"/><path d="M17593.8 950.283C17593.8 956.358 17588.8 961.283 17582.8 961.283 17576.7 961.283 17571.8 956.358 17571.8 950.283 17571.8 944.208 17576.7 939.283 17582.8 939.283 17588.8 939.283 17593.8 944.208 17593.8 950.283Z" stroke="#4472C4" stroke-width="3.4375" stroke-linejoin="round" stroke-miterlimit="10" fill="#4472C4"/><path d="M17944.8 1007.28C17944.8 1013.36 17939.8 1018.28 17933.8 1018.28 17927.7 1018.28 17922.8 1013.36 17922.8 1007.28 17922.8 1001.21 17927.7 996.284 17933.8 996.284 17939.8 996.284 17944.8 1001.21 17944.8 1007.28Z" stroke="#4472C4" stroke-width="3.4375" stroke-linejoin="round" stroke-miterlimit="10" fill="#4472C4"/></g><g clip-path="url(#clip6)"><path d="M17326.5 999.5 17329.1 999.533 17332.1 998.533 17335.1 998.533 17337.1 998.533 17340.1 997.533 17343.1 997.533 17345.1 996.533 17348.1 996.533 17351.1 995.533 17354.1 995.533 17356.1 995.533 17359.1 994.533 17362.1 994.533 17364.1 993.533 17367.1 993.533 17370.1 992.533 17372.1 992.533 17375.1 992.533 17378.1 991.533 17381.1 991.533 17383.1 990.533 17386.1 990.533 17389.1 989.533 17391.1 989.533 17394.1 988.533 17397.1 988.533 17400.1 988.533 17402.1 987.533 17405.1 987.533 17408.1 986.533 17410.1 986.533 17413.1 985.533 17416.1 985.533 17418.1 984.532 17421.1 984.532 17424.1 984.532 17427.1 983.532 17429.1 983.532 17432.1 982.532 17435.1 982.532 17437.1 981.532 17440.1 981.532 17443.1 980.532 17446.1 980.532 17448.1 980.532 17451.1 979.532 17454.1 979.532 17456.1 978.532 17459.1 978.532 17462.1 977.532 17464.1 977.532 17467.1 976.532 17470.1 976.532 17473.1 975.532 17475.1 975.532 17478.1 975.532 17481.1 974.532 17483.1 974.532 17486.1 973.532 17489.1 973.532 17492.1 972.532 17494.1 972.532 17497.1 971.532 17500.1 971.532 17502.1 970.532 17505.1 970.532 17508.1 970.532 17510.1 969.532 17513.1 969.532 17516.1 968.532 17519.1 968.532 17521.1 967.532 17524.1 967.532 17527.1 966.532 17529.1 966.532 17532.1 965.532 17535.1 965.532 17538.1 964.532 17540.1 964.532 17543.1 963.532 17546.1 963.532 17548.1 963.532 17551.1 962.532 17554.1 962.532 17556.1 961.532 17559.1 961.532 17562.1 960.532 17565.1 960.532 17567.1 959.532 17570.1 959.532 17573.1 958.532 17575.1 958.532 17578.1 957.532 17581.1 957.532 17584.1 956.532 17586.1 956.532 17589.1 955.532 17592.1 955.532 17594.1 954.531 17597.1 954.531 17600.1 953.531 17602.1 953.531 17605.1 952.531 17608.1 952.531 17611.1 952.531 17613.1 951.531 17616.1 951.531 17619.1 950.531 17621.1 950.531 17624.1 949.531 17627.1 949.531 17630.1 948.531 17632.1 948.531 17635.1 947.531 17638.1 947.531 17640.1 946.531 17643.1 946.531 17646.1 945.531 17648.1 945.531 17651.1 944.531 17654.1 944.531 17657.1 943.531 17659.1 943.531 17662.1 942.531 17665.1 942.531 17667.1 941.531 17670.1 941.531 17673.1 940.531 17676.1 940.531 17678.1 939.531 17681.1 939.531 17684.1 938.531 17686.1 938.531 17689.1 937.531 17692.1 937.531 17694.1 936.531 17697.1 936.531 17700.1 935.531 17703.1 935.531 17705.1 934.531 17708.1 934.531 17711.1 933.531 17713.1 933.531 17716.1 932.531 17719.1 932.531 17722.1 931.531 17724.1 931.531 17727.1 930.531 17730.1 930.531 17732.1 929.531 17735.1 929.531 17738.1 928.531 17740.1 928.531 17743.1 927.531 17746.1 927.531 17749.1 926.531 17751.1 926.531 17754.1 925.531 17757.1 925.531 17759.1 924.531 17762.1 924.531 17765.1 923.531 17768.1 923.531 17770.1 922.53 17773.1 921.53 17776.1 921.53 17778.1 920.53 17781.1 920.53 17784.1 919.53 17786.1 919.53 17789.1 918.53 17792.1 918.53 17795.1 917.53 17797.1 917.53 17800.1 916.53 17803.1 916.53 17805.1 915.53 17808.1 915.53 17811.1 914.53 17814.1 914.53 17816.1 913.53 17819.1 913.53 17822.1 912.53 17824.1 912.53 17827.1 911.53 17830.1 910.53 17832.1 910.53 17835.1 909.53 17838.1 909.53 17841.1 908.53 17843.1 908.53 17846.1 907.53 17849.1 907.53 17851.1 906.53 17854.1 906.53 17857.1 905.53 17860.1 905.53 17862.1 904.53 17865.1 904.53 17868.1 903.53 17870.1 902.53 17873.1 902.53 17876.1 901.53 17878.1 901.53 17881.1 900.53 17884.1 900.53 17887.1 899.53 17889.1 899.53 17892.1 898.53 17895.1 898.53 17897.1 897.53 17900.1 896.53 17903.1 896.53 17906.1 895.53 17908.1 895.53 17911.1 894.53 17914.1 894.53 17916.1 893.53 17919.1 893.53 17922.1 892.529 17924.1 891.529 17927.1 891.529 17930.1 890.529 17933.1 890.529 17935.1 889.529 17938.1 889.529 17941.1 888.529 17943.1 888.529 17946.1 887.529 17949.1 886.529 17952.1 886.529 17954.1 885.529 17957.1 885.529 17960.1 884.529 17962.1 884.529 17965.1 883.529 17968.1 883.529 17970.1 882.529 17973.1 881.529 17976.1 881.529 17979.1 880.529 17981.1 880.529 17984.1 879.529 17987.1 879.529 17989.1 878.529 17992.1 877.529 17995.1 877.529 17998.1 876.529 18000.1 876.529 18003.1 875.529 18006.1 875.529 18008.1 874.529 18011.1 873.529 18014.1 873.529 18016.1 872.529 18019.1 872.529 18022.1 871.529 18025.1 871.529 18027.1 870.529 18030.1 869.529 18033.1 869.529 18035.1 868.529 18038.1 868.529 18041.1 867.529 18044.1 867.529 18046.1 866.529 18049.1 865.529 18052.1 865.529 18054.1 864.529 18057.1 864.529 18060.1 863.529 18062.1 862.529 18065.1 862.529 18068.1 861.528 18071.1 861.528 18073.1 860.528 18076.1 859.528 18079.1 859.528 18081.1 858.528 18084.1 858.528 18087.1 857.528 18090.1 857.528 18092.1 856.528 18095.1 855.528 18098.1 855.528 18100.1 854.528 18103.1 854.528 18106.1 853.528 18108.1 852.528 18111.1 852.528 18114.1 851.528 18117.1 851.528 18119.1 850.528 18122.1 849.528 18125.1 849.528 18127.1 848.528 18130.1 848.528 18133.1 847.528 18136.1 846.528 18138.1 846.528 18141.1 845.528 18144.1 844.528 18146.1 844.528 18149.1 843.528 18152.1 843.528 18154.1 842.528 18157.1 841.528 18160.1 841.528 18163.1 840.528 18165.1 840.528 18168.1 839.528 18171.1 838.528 18173.1 838.528 18176.1 837.528 18179.1 837.528 18182.1 836.528 18184.1 835.528 18187.1 835.528 18190.1 834.528 18192.1 833.528 18195.1 833.528 18198.1 832.528 18200.1 832.528 18203.1 831.527 18206.1 830.527 18209.1 830.527 18211.1 829.527 18214.1 828.527 18217.1 828.527 18219.1 827.527 18222.1 827.527 18225.1 826.527 18228.1 825.527 18230.1 825.527 18233.1 824.527 18236.1 823.527 18238.1 823.527 18241.1 822.527 18244.1 821.527 18246.1 821.527 18249.1 820.527 18252.1 820.527 18255.1 819.527 18257.1 818.527 18260.1 818.527 18263.1 817.527 18265.1 816.527 18268.1 816.527 18271.1 815.527 18274.1 814.527 18276.1 814.527 18279.1 813.527 18282.1 813.527 18284.1 812.527 18287.1 811.527 18290.1 811.527 18292.1 810.527 18295.1 809.527 18298.1 809.527 18301.1 808.527 18303.1 807.527 18306.1 807.527 18309.1 806.527 18311.1 805.527 18314.1 805.527 18317.1 804.527 18320.1 803.527 18322.1 803.527 18325.1 802.527 18328.1 801.526 18330.1 801.526 18333.1 800.526 18336.1 799.526 18338.1 799.526 18341.1 798.526 18344.1 797.526 18347.1 797.526 18349.1 796.526 18352.1 796.526 18355.1 795.526 18357.1 794.526 18360.1 794.526 18363.1 793.526 18366.1 792.526 18368.1 791.526 18371.1 791.526 18374.1 790.526 18376.1 789.526 18379.1 789.526 18382.1 788.526 18384.1 787.526 18387.1 787.526 18390.1 786.526 18393.1 785.526 18395.1 785.526 18398.1 784.526 18401.1 783.526 18403.1 783.526 18406.1 782.526 18409.1 781.526 18412.1 781.526 18414.1 780.526 18417.1 779.526 18420.1 779.526 18422.1 778.526 18425.1 777.526 18428.1 777.526 18430.1 776.526 18433.1 775.526 18436.1 775.526 18439.1 774.526 18441.1 773.526 18444.1 772.526 18447.1 772.526 18449.1 771.526 18452.1 770.526 18455.1 770.526 18458.1 769.525 18460.1 768.525 18463.1 768.525 18466.1 767.525 18468.1 766.525 18471.1 765.525 18474.1 765.525 18476.1 764.525 18479.1 763.525 18482.1 763.525 18485.1 762.525 18487.1 761.525 18490.1 761.525 18493.1 760.525 18495.1 759.525 18498.1 758.525 18501.1 758.525 18504.1 757.525 18506.1 756.525 18509.1 756.525 18512.1 755.525 18514.1 754.525 18517.1 753.525 18520.1 753.525 18522.1 752.525 18525.1 751.525 18528.1 751.525 18531.1 750.525 18533.1 749.525 18536.1 748.525 18539.1 748.525 18541.1 747.525 18544.1 746.525 18547.1 746.525 18550.1 745.525 18552.1 744.525 18555.1 743.525 18558.1 743.525 18560.1 742.525 18563.1 741.525 18566.1 740.524 18568.1 740.524 18571.1 739.524 18574.1 738.524 18577.1 738.524 18579.1 737.524 18582.1 736.524 18585.1 735.524 18587.1 735.524 18590.1 734.524 18593.1 733.524 18596.1 732.524 18598.1 732.524 18601.1 731.524 18604.1 730.524 18606.1 729.524 18609.1 729.524 18612.1 728.524 18614.1 727.524 18617.1 726.524 18620.1 726.524 18623.1 725.524 18625.1 724.524 18628.1 723.524 18631.1 723.524 18633.1 722.524 18636.1 721.524 18639.1 720.524 18642.1 720.524 18644.1 719.524 18647.1 718.524 18650.1 717.524 18652.1 717.524 18655.1 716.524 18658.1 715.524 18660.1 714.524 18663.1 714.524 18666.1 713.524 18669.1 712.524 18671.1 711.524 18674.1 711.524 18677.1 710.523 18679.1 709.523 18682.1 708.523 18685.1 708.523 18688.1 707.523 18690.1 706.523 18693.1 705.523 18696.1 704.523 18698.1 704.523 18701.1 703.523 18704.1 702.523 18706.1 701.523 18709.1 701.523 18712.1 700.523 18715.1 699.523 18717.1 698.523 18720.1 698.523 18723.1 697.523 18725.1 696.523 18728.1 695.523 18731.1 694.523 18734.1 694.523 18736.1 693.523 18739.1 692.523 18742.1 691.523 18744.1 690.523 18747.1 690.523 18750.1 689.523 18752.1 688.523 18755.1 687.523 18758.1 687.523 18761.1 686.523 18763.1 685.523 18766.1 684.523 18769.1 683.523 18771.1 683.523 18774.1 682.523 18777.1 681.523 18780.1 680.523 18782.1 679.523 18785.5 679.5" stroke="#4472C4" stroke-width="6.875" stroke-linecap="round" stroke-linejoin="round" stroke-miterlimit="10" stroke-dasharray="0 13.75" fill="none"/></g><g clip-path="url(#clip7)"><text fill="#595959" font-family="Gotham,Gotham_MSFontService,sans-serif" font-weight="400" font-size="55" transform="matrix(1 0 0 1 18175.5 1036)">y = 0.1658e</text></g><g clip-path="url(#clip8)"><text fill="#595959" font-family="Gotham,Gotham_MSFontService,sans-serif" font-weight="400" font-size="37" transform="matrix(1 0 0 1 18481.3 1019)">0.057x</text></g><g clip-path="url(#clip9)"><text fill="#595959" font-family="Gotham,Gotham_MSFontService,sans-serif" font-weight="400" font-size="55" transform="matrix(1 0 0 1 18232.1 1097)">R</text></g><g clip-path="url(#clip10)"><text fill="#595959" font-family="Cambria,Cambria_MSFontService,sans-serif" font-weight="400" font-size="55" transform="matrix(1 0 0 1 18271.9 1097)">²</text></g><g clip-path="url(#clip11)"><text fill="#595959" font-family="Gotham,Gotham_MSFontService,sans-serif" font-weight="400" font-size="55" transform="matrix(1 0 0 1 18310.8 1097)">= 0.2529</text></g><g clip-path="url(#clip12)"><text fill="#595959" font-family="Gotham,Gotham_MSFontService,sans-serif" font-weight="400" font-size="41" transform="matrix(1 0 0 1 17164.2 1382)">0</text></g><g clip-path="url(#clip13)"><text fill="#595959" font-family="Gotham,Gotham_MSFontService,sans-serif" font-weight="400" font-size="41" transform="matrix(1 0 0 1 17099.3 1276)">0.05</text></g><g clip-path="url(#clip14)"><text fill="#595959" font-family="Gotham,Gotham_MSFontService,sans-serif" font-weight="400" font-size="41" transform="matrix(1 0 0 1 17139.3 1169)">0.1</text></g><g clip-path="url(#clip15)"><text fill="#595959" font-family="Gotham,Gotham_MSFontService,sans-serif" font-weight="400" font-size="41" transform="matrix(1 0 0 1 17114.1 1063)">0.15</text></g><g clip-path="url(#clip16)"><text fill="#595959" font-family="Gotham,Gotham_MSFontService,sans-serif" font-weight="400" font-size="41" transform="matrix(1 0 0 1 17129.4 957)">0.2</text></g><g clip-path="url(#clip17)"><text fill="#595959" font-family="Gotham,Gotham_MSFontService,sans-serif" font-weight="400" font-size="41" transform="matrix(1 0 0 1 17104.1 850)">0.25</text></g><g clip-path="url(#clip18)"><text fill="#595959" font-family="Gotham,Gotham_MSFontService,sans-serif" font-weight="400" font-size="41" transform="matrix(1 0 0 1 17128.8 744)">0.3</text></g><g clip-path="url(#clip19)"><text fill="#595959" font-family="Gotham,Gotham_MSFontService,sans-serif" font-weight="400" font-size="41" transform="matrix(1 0 0 1 17103.5 638)">0.35</text></g><g clip-path="url(#clip20)"><text fill="#595959" font-family="Gotham,Gotham_MSFontService,sans-serif" font-weight="400" font-size="41" transform="matrix(1 0 0 1 17126.4 531)">0.4</text></g><g clip-path="url(#clip21)"><text fill="#595959" font-family="Gotham,Gotham_MSFontService,sans-serif" font-weight="400" font-size="41" transform="matrix(1 0 0 1 17101.1 425)">0.45</text></g><g clip-path="url(#clip22)"><text fill="#595959" font-family="Gotham,Gotham_MSFontService,sans-serif" font-weight="400" font-size="41" transform="matrix(1 0 0 1 17213.5 1430)">0</text></g><g clip-path="url(#clip23)"><text fill="#595959" font-family="Gotham,Gotham_MSFontService,sans-serif" font-weight="400" font-size="41" transform="matrix(1 0 0 1 17480.9 1430)">2</text></g><g clip-path="url(#clip24)"><text fill="#595959" font-family="Gotham,Gotham_MSFontService,sans-serif" font-weight="400" font-size="41" transform="matrix(1 0 0 1 17744.4 1430)">4</text></g><g clip-path="url(#clip25)"><text fill="#595959" font-family="Gotham,Gotham_MSFontService,sans-serif" font-weight="400" font-size="41" transform="matrix(1 0 0 1 18009.9 1430)">6</text></g><g clip-path="url(#clip26)"><text fill="#595959" font-family="Gotham,Gotham_MSFontService,sans-serif" font-weight="400" font-size="41" transform="matrix(1 0 0 1 18275.2 1430)">8</text></g><g clip-path="url(#clip27)"><text fill="#595959" font-family="Gotham,Gotham_MSFontService,sans-serif" font-weight="400" font-size="41" transform="matrix(1 0 0 1 18531.1 1430)">10</text></g><g clip-path="url(#clip28)"><text fill="#595959" font-family="Gotham,Gotham_MSFontService,sans-serif" font-weight="400" font-size="41" transform="matrix(1 0 0 1 18798.4 1430)">12</text></g><g clip-path="url(#clip29)"><text fill="#595959" font-family="Gotham,Gotham_MSFontService,sans-serif" font-weight="400" font-size="41" transform="matrix(1 0 0 1 19061.9 1430)">14</text></g><g clip-path="url(#clip30)"><text fill="#595959" font-family="Gotham,Gotham_MSFontService,sans-serif" font-weight="400" font-size="46" transform="matrix(6.12323e-17 -1 1 6.12323e-17 17078.5 1384)">Fullness (Fraction) of Bin reached per day </text></g><g clip-path="url(#clip31)"><text fill="#595959" font-family="Gotham,Gotham_MSFontService,sans-serif" font-weight="400" font-size="46" transform="matrix(1 0 0 1 17919.7 1493)">Total Flights per day </text></g><g clip-path="url(#clip32)"><text fill="#595959" font-family="Gotham,Gotham_MSFontService,sans-serif" font-weight="400" font-size="64" transform="matrix(1 0 0 1 17266.9 274)">Fullness (Fraction) of Bin reached per day vs Total </text></g><g clip-path="url(#clip33)"><text fill="#595959" font-family="Gotham,Gotham_MSFontService,sans-serif" font-weight="400" font-size="64" transform="matrix(1 0 0 1 17828.4 343)">Flights per day </text></g><rect x="16979.5" y="182.5" width="2176" height="1375" stroke="#D9D9D9" stroke-width="3.4375" stroke-linejoin="round" stroke-miterlimit="10" fill="none"/></g></svg>