<svg width="1653" height="952" xmlns="http://www.w3.org/2000/svg" xmlns:xlink="http://www.w3.org/1999/xlink" overflow="hidden"><defs><clipPath id="clip0"><rect x="1412" y="264" width="1653" height="952"/></clipPath><clipPath id="clip1"><rect x="1413" y="265" width="1650" height="948"/></clipPath><clipPath id="clip2"><rect x="1612" y="494" width="1404" height="413"/></clipPath><clipPath id="clip3"><rect x="1413" y="265" width="1650" height="948"/></clipPath><clipPath id="clip4"><rect x="1413" y="265" width="1650" height="948"/></clipPath><clipPath id="clip5"><rect x="1413" y="265" width="1650" height="948"/></clipPath><clipPath id="clip6"><rect x="1413" y="265" width="1650" height="948"/></clipPath><clipPath id="clip7"><rect x="1413" y="265" width="1650" height="948"/></clipPath><clipPath id="clip8"><rect x="1413" y="265" width="1650" height="948"/></clipPath><clipPath id="clip9"><rect x="1413" y="265" width="1650" height="948"/></clipPath><clipPath id="clip10"><rect x="1413" y="265" width="1650" height="948"/></clipPath><clipPath id="clip11"><rect x="1413" y="265" width="1650" height="948"/></clipPath><clipPath id="clip12"><rect x="1413" y="265" width="1650" height="948"/></clipPath><clipPath id="clip13"><rect x="1413" y="265" width="1650" height="948"/></clipPath><clipPath id="clip14"><rect x="1413" y="265" width="1650" height="948"/></clipPath><clipPath id="clip15"><rect x="1413" y="265" width="1650" height="948"/></clipPath><clipPath id="clip16"><rect x="1413" y="265" width="1650" height="948"/></clipPath><clipPath id="clip17"><rect x="1413" y="265" width="1650" height="948"/></clipPath><clipPath id="clip18"><rect x="1413" y="265" width="1650" height="948"/></clipPath><clipPath id="clip19"><rect x="1413" y="265" width="1650" height="948"/></clipPath><clipPath id="clip20"><rect x="1413" y="265" width="1650" height="948"/></clipPath><clipPath id="clip21"><rect x="1413" y="265" width="1650" height="948"/></clipPath><clipPath id="clip22"><rect x="1413" y="265" width="1650" height="948"/></clipPath><clipPath id="clip23"><rect x="1413" y="265" width="1650" height="948"/></clipPath><clipPath id="clip24"><rect x="1413" y="265" width="1650" height="948"/></clipPath><clipPath id="clip25"><rect x="1413" y="265" width="1650" height="948"/></clipPath><clipPath id="clip26"><rect x="1413" y="265" width="1650" height="948"/></clipPath><clipPath id="clip27"><rect x="1413" y="265" width="1650" height="948"/></clipPath><clipPath id="clip28"><rect x="1413" y="265" width="1650" height="948"/></clipPath><clipPath id="clip29"><rect x="1413" y="265" width="1650" height="948"/></clipPath><clipPath id="clip30"><rect x="1413" y="265" width="1650" height="948"/></clipPath><clipPath id="clip31"><rect x="1413" y="265" width="1650" height="948"/></clipPath></defs><g clip-path="url(#clip0)" transform="translate(-1412 -264)"><rect x="1413" y="265" width="1650" height="949" fill="#FFFFFF"/><g clip-path="url(#clip1)"><path d="M1612.5 863.529 3012.5 863.529M1612.5 822.527 3012.5 822.527M1612.5 781.526 3012.5 781.526M1612.5 740.524 3012.5 740.524M1612.5 699.523 3012.5 699.523M1612.5 658.522 3012.5 658.522M1612.5 617.52 3012.5 617.52M1612.5 576.519 3012.5 576.519M1612.5 535.518 3012.5 535.518M1612.5 494.5 3012.5 494.5" stroke="#D9D9D9" stroke-width="3.4375" stroke-linejoin="round" stroke-miterlimit="10" fill="none"/></g><g clip-path="url(#clip2)"><path d="M1649.05 535.018 1683.06 535.018 1683.06 904 1649.05 904ZM1757.06 535.018 1790.06 535.018 1790.06 904 1757.06 904ZM1864.06 535.018 1898.06 535.018 1898.06 904 1864.06 904ZM1972.06 658.022 2006.07 658.022 2006.07 904 1972.06 904ZM2080.07 617.02 2114.07 617.02 2114.07 904 2080.07 904ZM2188.07 658.022 2221.07 658.022 2221.07 904 2188.07 904ZM2295.08 822.027 2329.08 822.027 2329.08 904 2295.08 904ZM2403.08 822.027 2437.08 822.027 2437.08 904 2403.08 904ZM2511.08 863.028 2545.08 863.028 2545.08 904 2511.08 904ZM2619.09 863.028 2652.09 863.028 2652.09 904 2619.09 904ZM2726.09 822.027 2760.09 822.027 2760.09 904 2726.09 904ZM2834.09 863.028 2868.09 863.028 2868.09 904 2834.09 904ZM2942.1 740.024 2976.1 740.024 2976.1 904 2942.1 904Z" fill="#4472C4"/></g><g clip-path="url(#clip3)"><path d="M1612.5 904.5 3012.5 904.5" stroke="#D9D9D9" stroke-width="3.4375" stroke-linejoin="round" stroke-miterlimit="10" fill="none" fill-rule="evenodd"/></g><g clip-path="url(#clip4)"><text fill="#595959" font-family="Gotham,Gotham_MSFontService,sans-serif" font-weight="400" font-size="41" transform="matrix(1 0 0 1 1548 919)">0</text></g><g clip-path="url(#clip5)"><text fill="#595959" font-family="Gotham,Gotham_MSFontService,sans-serif" font-weight="400" font-size="41" transform="matrix(1 0 0 1 1562.73 878)">1</text></g><g clip-path="url(#clip6)"><text fill="#595959" font-family="Gotham,Gotham_MSFontService,sans-serif" font-weight="400" font-size="41" transform="matrix(1 0 0 1 1552.79 836)">2</text></g><g clip-path="url(#clip7)"><text fill="#595959" font-family="Gotham,Gotham_MSFontService,sans-serif" font-weight="400" font-size="41" transform="matrix(1 0 0 1 1552.21 795)">3</text></g><g clip-path="url(#clip8)"><text fill="#595959" font-family="Gotham,Gotham_MSFontService,sans-serif" font-weight="400" font-size="41" transform="matrix(1 0 0 1 1549.81 754)">4</text></g><g clip-path="url(#clip9)"><text fill="#595959" font-family="Gotham,Gotham_MSFontService,sans-serif" font-weight="400" font-size="41" transform="matrix(1 0 0 1 1552.24 713)">5</text></g><g clip-path="url(#clip10)"><text fill="#595959" font-family="Gotham,Gotham_MSFontService,sans-serif" font-weight="400" font-size="41" transform="matrix(1 0 0 1 1550.79 672)">6</text></g><g clip-path="url(#clip11)"><text fill="#595959" font-family="Gotham,Gotham_MSFontService,sans-serif" font-weight="400" font-size="41" transform="matrix(1 0 0 1 1552.9 631)">7</text></g><g clip-path="url(#clip12)"><text fill="#595959" font-family="Gotham,Gotham_MSFontService,sans-serif" font-weight="400" font-size="41" transform="matrix(1 0 0 1 1551.5 590)">8</text></g><g clip-path="url(#clip13)"><text fill="#595959" font-family="Gotham,Gotham_MSFontService,sans-serif" font-weight="400" font-size="41" transform="matrix(1 0 0 1 1550.79 549)">9</text></g><g clip-path="url(#clip14)"><text fill="#595959" font-family="Gotham,Gotham_MSFontService,sans-serif" font-weight="400" font-size="41" transform="matrix(1 0 0 1 1533.24 508)">10</text></g><g clip-path="url(#clip15)"><text fill="#595959" font-family="Gotham,Gotham_MSFontService,sans-serif" font-weight="400" font-size="41" transform="matrix(0.707107 -0.707107 0.707107 0.707107 1653.42 979)">A</text></g><g clip-path="url(#clip16)"><text fill="#595959" font-family="Gotham,Gotham_MSFontService,sans-serif" font-weight="400" font-size="41" transform="matrix(0.707107 -0.707107 0.707107 0.707107 1763.15 977)">B</text></g><g clip-path="url(#clip17)"><text fill="#595959" font-family="Gotham,Gotham_MSFontService,sans-serif" font-weight="400" font-size="41" transform="matrix(0.707107 -0.707107 0.707107 0.707107 1870.44 977)">C</text></g><g clip-path="url(#clip18)"><text fill="#595959" font-family="Gotham,Gotham_MSFontService,sans-serif" font-weight="400" font-size="41" transform="matrix(0.707107 -0.707107 0.707107 0.707107 1976.89 978)">D</text></g><g clip-path="url(#clip19)"><text fill="#595959" font-family="Gotham,Gotham_MSFontService,sans-serif" font-weight="400" font-size="41" transform="matrix(0.707107 -0.707107 0.707107 0.707107 2087.91 975)">E</text></g><g clip-path="url(#clip20)"><text fill="#595959" font-family="Gotham,Gotham_MSFontService,sans-serif" font-weight="400" font-size="41" transform="matrix(0.707107 -0.707107 0.707107 0.707107 2196.06 975)">F</text></g><g clip-path="url(#clip21)"><text fill="#595959" font-family="Gotham,Gotham_MSFontService,sans-serif" font-weight="400" font-size="41" transform="matrix(0.707107 -0.707107 0.707107 0.707107 2194.67 1084)">200-209</text></g><g clip-path="url(#clip22)"><text fill="#595959" font-family="Gotham,Gotham_MSFontService,sans-serif" font-weight="400" font-size="41" transform="matrix(0.707107 -0.707107 0.707107 0.707107 2371.11 1015)">300</text></g><g clip-path="url(#clip23)"><text fill="#595959" font-family="Gotham,Gotham_MSFontService,sans-serif" font-weight="400" font-size="41" transform="matrix(0.707107 -0.707107 0.707107 0.707107 2405.25 1089)">400-404</text></g><g clip-path="url(#clip24)"><text fill="#595959" font-family="Gotham,Gotham_MSFontService,sans-serif" font-weight="400" font-size="41" transform="matrix(0.707107 -0.707107 0.707107 0.707107 2586.62 1015)">500</text></g><g clip-path="url(#clip25)"><text fill="#595959" font-family="Gotham,Gotham_MSFontService,sans-serif" font-weight="400" font-size="41" transform="matrix(0.707107 -0.707107 0.707107 0.707107 2693.34 1016)">600</text></g><g clip-path="url(#clip26)"><text fill="#595959" font-family="Gotham,Gotham_MSFontService,sans-serif" font-weight="400" font-size="41" transform="matrix(0.707107 -0.707107 0.707107 0.707107 2743.37 1074)">461-484</text></g><g clip-path="url(#clip27)"><text fill="#595959" font-family="Gotham,Gotham_MSFontService,sans-serif" font-weight="400" font-size="41" transform="matrix(0.707107 -0.707107 0.707107 0.707107 2908.09 1017)">T4G</text></g><g clip-path="url(#clip28)"><text fill="#595959" font-family="Gotham,Gotham_MSFontService,sans-serif" font-weight="400" font-size="46" transform="matrix(6.12323e-17 -1 1 6.12323e-17 1512.45 845)">No. of flights</text></g><g clip-path="url(#clip29)"><text fill="#595959" font-family="Gotham,Gotham_MSFontService,sans-serif" font-weight="400" font-size="46" transform="matrix(1 0 0 1 2258.17 1149)">Area</text></g><g clip-path="url(#clip30)"><text fill="#595959" font-family="Gotham,Gotham_MSFontService,sans-serif" font-weight="400" font-size="64" transform="matrix(1 0 0 1 1607.6 357)">Average no. of flights per day per stand </text></g><g clip-path="url(#clip31)"><text fill="#595959" font-family="Gotham,Gotham_MSFontService,sans-serif" font-weight="400" font-size="64" transform="matrix(1 0 0 1 1605.22 426)">in each area for the month of June 2019</text></g><rect x="1413.5" y="265.5" width="1650" height="949" stroke="#D9D9D9" stroke-width="3.4375" stroke-linejoin="round" stroke-miterlimit="10" fill="none"/></g></svg>