<svg width="2326" height="1365" xmlns="http://www.w3.org/2000/svg" xmlns:xlink="http://www.w3.org/1999/xlink" overflow="hidden"><defs><clipPath id="clip0"><rect x="1733" y="524" width="2326" height="1365"/></clipPath><clipPath id="clip1"><rect x="1733" y="524" width="2324" height="1362"/></clipPath><clipPath id="clip2"><rect x="1733" y="524" width="2324" height="1362"/></clipPath><clipPath id="clip3"><rect x="1733" y="524" width="2324" height="1362"/></clipPath><clipPath id="clip4"><rect x="1733" y="524" width="2324" height="1362"/></clipPath><clipPath id="clip5"><rect x="1733" y="524" width="2324" height="1362"/></clipPath><clipPath id="clip6"><rect x="1733" y="524" width="2324" height="1362"/></clipPath><clipPath id="clip7"><rect x="1982" y="753" width="2005" height="944"/></clipPath><clipPath id="clip8"><rect x="1733" y="524" width="2324" height="1362"/></clipPath><clipPath id="clip9"><rect x="1733" y="524" width="2324" height="1362"/></clipPath><clipPath id="clip10"><rect x="1733" y="524" width="2324" height="1362"/></clipPath><clipPath id="clip11"><rect x="1733" y="524" width="2324" height="1362"/></clipPath><clipPath id="clip12"><rect x="1733" y="524" width="2324" height="1362"/></clipPath><clipPath id="clip13"><rect x="1733" y="524" width="2324" height="1362"/></clipPath><clipPath id="clip14"><rect x="1733" y="524" width="2324" height="1362"/></clipPath><clipPath id="clip15"><rect x="1733" y="524" width="2324" height="1362"/></clipPath><clipPath id="clip16"><rect x="1733" y="524" width="2324" height="1362"/></clipPath><clipPath id="clip17"><rect x="1733" y="524" width="2324" height="1362"/></clipPath><clipPath id="clip18"><rect x="1733" y="524" width="2324" height="1362"/></clipPath><clipPath id="clip19"><rect x="1733" y="524" width="2324" height="1362"/></clipPath><clipPath id="clip20"><rect x="1733" y="524" width="2324" height="1362"/></clipPath><clipPath id="clip21"><rect x="1733" y="524" width="2324" height="1362"/></clipPath><clipPath id="clip22"><rect x="1733" y="524" width="2324" height="1362"/></clipPath><clipPath id="clip23"><rect x="1733" y="524" width="2324" height="1362"/></clipPath><clipPath id="clip24"><rect x="1733" y="524" width="2324" height="1362"/></clipPath><clipPath id="clip25"><rect x="1733" y="524" width="2324" height="1362"/></clipPath><clipPath id="clip26"><rect x="1733" y="524" width="2324" height="1362"/></clipPath><clipPath id="clip27"><rect x="1733" y="524" width="2324" height="1362"/></clipPath><clipPath id="clip28"><rect x="1733" y="524" width="2324" height="1362"/></clipPath><clipPath id="clip29"><rect x="1733" y="524" width="2324" height="1362"/></clipPath><clipPath id="clip30"><rect x="1733" y="524" width="2324" height="1362"/></clipPath></defs><g clip-path="url(#clip0)" transform="translate(-1733 -524)"><rect x="1734" y="525" width="2323" height="1362" fill="#FFFFFF"/><g clip-path="url(#clip1)"><path d="M1982.5 1562.55 3987.5 1562.55M1982.5 1427.55 3987.5 1427.55M1982.5 1293.54 3987.5 1293.54M1982.5 1158.54 3987.5 1158.54M1982.5 1023.53 3987.5 1023.53M1982.5 888.529 3987.5 888.529M1982.5 753.5 3987.5 753.5" stroke="#D9D9D9" stroke-width="3.4375" stroke-linejoin="round" stroke-miterlimit="10" fill="none"/></g><g clip-path="url(#clip2)"><path d="M2049.57 753.5 2049.57 1697.5M2116.57 753.5 2116.57 1697.5M2182.57 753.5 2182.57 1697.5M2249.57 753.5 2249.57 1697.5M2383.58 753.5 2383.58 1697.5M2450.58 753.5 2450.58 1697.5M2517.58 753.5 2517.58 1697.5M2583.58 753.5 2583.58 1697.5M2717.59 753.5 2717.59 1697.5M2784.59 753.5 2784.59 1697.5M2851.59 753.5 2851.59 1697.5M2917.6 753.5 2917.6 1697.5M3051.6 753.5 3051.6 1697.5M3118.6 753.5 3118.6 1697.5M3185.6 753.5 3185.6 1697.5M3252.61 753.5 3252.61 1697.5M3385.61 753.5 3385.61 1697.5M3452.61 753.5 3452.61 1697.5M3519.62 753.5 3519.62 1697.5M3586.62 753.5 3586.62 1697.5M3719.62 753.5 3719.62 1697.5M3786.62 753.5 3786.62 1697.5M3853.63 753.5 3853.63 1697.5M3920.63 753.5 3920.63 1697.5" stroke="#F2F2F2" stroke-width="3.4375" stroke-linejoin="round" stroke-miterlimit="10" fill="none"/></g><g clip-path="url(#clip3)"><path d="M2316.58 753.5 2316.58 1697.5M2650.59 753.5 2650.59 1697.5M2984.6 753.5 2984.6 1697.5M3318.61 753.5 3318.61 1697.5M3652.62 753.5 3652.62 1697.5M3987.5 753.5 3987.5 1697.5" stroke="#D9D9D9" stroke-width="3.4375" stroke-linejoin="round" stroke-miterlimit="10" fill="none"/></g><g clip-path="url(#clip4)"><path d="M0 0 0.000360892 944" stroke="#BFBFBF" stroke-width="3.4375" stroke-linejoin="round" stroke-miterlimit="10" fill="none" fill-rule="evenodd" transform="matrix(1 0 0 -1 1982.5 1697.5)"/></g><g clip-path="url(#clip5)"><path d="M1982.5 1697.5 3987.5 1697.5" stroke="#BFBFBF" stroke-width="3.4375" stroke-linejoin="round" stroke-miterlimit="10" fill="none" fill-rule="evenodd"/></g><g clip-path="url(#clip6)"><path d="M2322.06 1090.12C2322.06 1096.19 2317.13 1101.11 2311.06 1101.11 2304.98 1101.11 2300.06 1096.19 2300.06 1090.12 2300.06 1084.04 2304.98 1079.12 2311.06 1079.12 2317.13 1079.12 2322.06 1084.04 2322.06 1090.12Z" stroke="#4472C4" stroke-width="3.4375" stroke-linejoin="round" stroke-miterlimit="10" fill="#4472C4"/><path d="M2823.06 1090.12C2823.06 1096.19 2818.13 1101.11 2812.06 1101.11 2805.98 1101.11 2801.06 1096.19 2801.06 1090.12 2801.06 1084.04 2805.98 1079.12 2812.06 1079.12 2818.13 1079.12 2823.06 1084.04 2823.06 1090.12Z" stroke="#4472C4" stroke-width="3.4375" stroke-linejoin="round" stroke-miterlimit="10" fill="#4472C4"/><path d="M3437.06 1090.12C3437.06 1096.19 3432.13 1101.11 3426.06 1101.11 3419.98 1101.11 3415.06 1096.19 3415.06 1090.12 3415.06 1084.04 3419.98 1079.12 3426.06 1079.12 3432.13 1079.12 3437.06 1084.04 3437.06 1090.12Z" stroke="#4472C4" stroke-width="3.4375" stroke-linejoin="round" stroke-miterlimit="10" fill="#4472C4"/><path d="M2117.06 1090.12C2117.06 1096.19 2112.13 1101.11 2106.06 1101.11 2099.98 1101.11 2095.06 1096.19 2095.06 1090.12 2095.06 1084.04 2099.98 1079.12 2106.06 1079.12 2112.13 1079.12 2117.06 1084.04 2117.06 1090.12Z" stroke="#4472C4" stroke-width="3.4375" stroke-linejoin="round" stroke-miterlimit="10" fill="#4472C4"/><path d="M3432.06 1090.12C3432.06 1096.19 3427.13 1101.11 3421.06 1101.11 3414.98 1101.11 3410.06 1096.19 3410.06 1090.12 3410.06 1084.04 3414.98 1079.12 3421.06 1079.12 3427.13 1079.12 3432.06 1084.04 3432.06 1090.12Z" stroke="#4472C4" stroke-width="3.4375" stroke-linejoin="round" stroke-miterlimit="10" fill="#4472C4"/><path d="M3956.06 875.115C3956.06 881.19 3951.13 886.115 3945.06 886.115 3938.98 886.115 3934.06 881.19 3934.06 875.115 3934.06 869.04 3938.98 864.116 3945.06 864.116 3951.13 864.116 3956.06 869.04 3956.06 875.115Z" stroke="#4472C4" stroke-width="3.4375" stroke-linejoin="round" stroke-miterlimit="10" fill="#4472C4"/><path d="M3142.06 875.115C3142.06 881.19 3137.13 886.115 3131.06 886.115 3124.98 886.115 3120.06 881.19 3120.06 875.115 3120.06 869.04 3124.98 864.116 3131.06 864.116 3137.13 864.116 3142.06 869.04 3142.06 875.115Z" stroke="#4472C4" stroke-width="3.4375" stroke-linejoin="round" stroke-miterlimit="10" fill="#4472C4"/><path d="M3695.06 875.115C3695.06 881.19 3690.13 886.115 3684.06 886.115 3677.98 886.115 3673.06 881.19 3673.06 875.115 3673.06 869.04 3677.98 864.116 3684.06 864.116 3690.13 864.116 3695.06 869.04 3695.06 875.115Z" stroke="#4472C4" stroke-width="3.4375" stroke-linejoin="round" stroke-miterlimit="10" fill="#4472C4"/><path d="M3862.06 875.115C3862.06 881.19 3857.13 886.115 3851.06 886.115 3844.98 886.115 3840.06 881.19 3840.06 875.115 3840.06 869.04 3844.98 864.116 3851.06 864.116 3857.13 864.116 3862.06 869.04 3862.06 875.115Z" stroke="#4472C4" stroke-width="3.4375" stroke-linejoin="round" stroke-miterlimit="10" fill="#4472C4"/><path d="M3716.06 875.115C3716.06 881.19 3711.13 886.115 3705.06 886.115 3698.98 886.115 3694.06 881.19 3694.06 875.115 3694.06 869.04 3698.98 864.116 3705.06 864.116 3711.13 864.116 3716.06 869.04 3716.06 875.115Z" stroke="#4472C4" stroke-width="3.4375" stroke-linejoin="round" stroke-miterlimit="10" fill="#4472C4"/><path d="M2552.06 918.115C2552.06 924.19 2547.13 929.115 2541.06 929.115 2534.98 929.115 2530.06 924.19 2530.06 918.115 2530.06 912.04 2534.98 907.116 2541.06 907.116 2547.13 907.116 2552.06 912.04 2552.06 918.115Z" stroke="#4472C4" stroke-width="3.4375" stroke-linejoin="round" stroke-miterlimit="10" fill="#4472C4"/><path d="M2865.06 918.115C2865.06 924.19 2860.13 929.115 2854.06 929.115 2847.98 929.115 2843.06 924.19 2843.06 918.115 2843.06 912.04 2847.98 907.116 2854.06 907.116 2860.13 907.116 2865.06 912.04 2865.06 918.115Z" stroke="#4472C4" stroke-width="3.4375" stroke-linejoin="round" stroke-miterlimit="10" fill="#4472C4"/><path d="M3324.06 918.115C3324.06 924.19 3319.13 929.115 3313.06 929.115 3306.98 929.115 3302.06 924.19 3302.06 918.115 3302.06 912.04 3306.98 907.116 3313.06 907.116 3319.13 907.116 3324.06 912.04 3324.06 918.115Z" stroke="#4472C4" stroke-width="3.4375" stroke-linejoin="round" stroke-miterlimit="10" fill="#4472C4"/><path d="M3429.06 918.115C3429.06 924.19 3424.13 929.115 3418.06 929.115 3411.98 929.115 3407.06 924.19 3407.06 918.115 3407.06 912.04 3411.98 907.116 3418.06 907.116 3424.13 907.116 3429.06 912.04 3429.06 918.115Z" stroke="#4472C4" stroke-width="3.4375" stroke-linejoin="round" stroke-miterlimit="10" fill="#4472C4"/><path d="M2823.06 918.115C2823.06 924.19 2818.13 929.115 2812.06 929.115 2805.98 929.115 2801.06 924.19 2801.06 918.115 2801.06 912.04 2805.98 907.116 2812.06 907.116 2818.13 907.116 2823.06 912.04 2823.06 918.115Z" stroke="#4472C4" stroke-width="3.4375" stroke-linejoin="round" stroke-miterlimit="10" fill="#4472C4"/><path d="M2284.06 1339.12C2284.06 1345.19 2279.13 1350.12 2273.06 1350.12 2266.98 1350.12 2262.06 1345.19 2262.06 1339.12 2262.06 1333.04 2266.98 1328.12 2273.06 1328.12 2279.13 1328.12 2284.06 1333.04 2284.06 1339.12Z" stroke="#4472C4" stroke-width="3.4375" stroke-linejoin="round" stroke-miterlimit="10" fill="#4472C4"/><path d="M2451.06 1339.12C2451.06 1345.19 2446.13 1350.12 2440.06 1350.12 2433.98 1350.12 2429.06 1345.19 2429.06 1339.12 2429.06 1333.04 2433.98 1328.12 2440.06 1328.12 2446.13 1328.12 2451.06 1333.04 2451.06 1339.12Z" stroke="#4472C4" stroke-width="3.4375" stroke-linejoin="round" stroke-miterlimit="10" fill="#4472C4"/><path d="M2403.06 1339.12C2403.06 1345.19 2398.13 1350.12 2392.06 1350.12 2385.98 1350.12 2381.06 1345.19 2381.06 1339.12 2381.06 1333.04 2385.98 1328.12 2392.06 1328.12 2398.13 1328.12 2403.06 1333.04 2403.06 1339.12Z" stroke="#4472C4" stroke-width="3.4375" stroke-linejoin="round" stroke-miterlimit="10" fill="#4472C4"/><path d="M1994.06 1207.12C1994.06 1213.19 1989.13 1218.12 1983.06 1218.12 1976.98 1218.12 1972.06 1213.19 1972.06 1207.12 1972.06 1201.04 1976.98 1196.12 1983.06 1196.12 1989.13 1196.12 1994.06 1201.04 1994.06 1207.12Z" stroke="#4472C4" stroke-width="3.4375" stroke-linejoin="round" stroke-miterlimit="10" fill="#4472C4"/><path d="M1994.06 1207.12C1994.06 1213.19 1989.13 1218.12 1983.06 1218.12 1976.98 1218.12 1972.06 1213.19 1972.06 1207.12 1972.06 1201.04 1976.98 1196.12 1983.06 1196.12 1989.13 1196.12 1994.06 1201.04 1994.06 1207.12Z" stroke="#4472C4" stroke-width="3.4375" stroke-linejoin="round" stroke-miterlimit="10" fill="#4472C4"/></g><g clip-path="url(#clip7)"><path d="M0 0 1962 367" stroke="#4472C4" stroke-width="6.875" stroke-linecap="round" stroke-linejoin="round" stroke-miterlimit="10" stroke-dasharray="0 13.75" fill="none" fill-rule="evenodd" transform="matrix(1 0 0 -1 1983.5 1217.5)"/></g><g clip-path="url(#clip8)"><text fill="#595959" font-family="Gotham,Gotham_MSFontService,sans-serif" font-weight="400" font-size="64" transform="matrix(1 0 0 1 3138.97 1342)">y = 0.0116x + 0.1778</text></g><g clip-path="url(#clip9)"><text fill="#595959" font-family="Gotham,Gotham_MSFontService,sans-serif" font-weight="400" font-size="64" transform="matrix(1 0 0 1 3259.6 1414)">R</text></g><g clip-path="url(#clip10)"><text fill="#595959" font-family="Cambria,Cambria_MSFontService,sans-serif" font-weight="400" font-size="64" transform="matrix(1 0 0 1 3305.98 1414)">²</text></g><g clip-path="url(#clip11)"><text fill="#595959" font-family="Gotham,Gotham_MSFontService,sans-serif" font-weight="400" font-size="64" transform="matrix(1 0 0 1 3351.36 1414)">= 0.5084</text></g><g clip-path="url(#clip12)"><text fill="#595959" font-family="Gotham,Gotham_MSFontService,sans-serif" font-weight="400" font-size="41" transform="matrix(1 0 0 1 1918.5 1712)">0</text></g><g clip-path="url(#clip13)"><text fill="#595959" font-family="Gotham,Gotham_MSFontService,sans-serif" font-weight="400" font-size="41" transform="matrix(1 0 0 1 1853.64 1577)">0.05</text></g><g clip-path="url(#clip14)"><text fill="#595959" font-family="Gotham,Gotham_MSFontService,sans-serif" font-weight="400" font-size="41" transform="matrix(1 0 0 1 1893.63 1442)">0.1</text></g><g clip-path="url(#clip15)"><text fill="#595959" font-family="Gotham,Gotham_MSFontService,sans-serif" font-weight="400" font-size="41" transform="matrix(1 0 0 1 1868.38 1307)">0.15</text></g><g clip-path="url(#clip16)"><text fill="#595959" font-family="Gotham,Gotham_MSFontService,sans-serif" font-weight="400" font-size="41" transform="matrix(1 0 0 1 1883.68 1172)">0.2</text></g><g clip-path="url(#clip17)"><text fill="#595959" font-family="Gotham,Gotham_MSFontService,sans-serif" font-weight="400" font-size="41" transform="matrix(1 0 0 1 1858.43 1038)">0.25</text></g><g clip-path="url(#clip18)"><text fill="#595959" font-family="Gotham,Gotham_MSFontService,sans-serif" font-weight="400" font-size="41" transform="matrix(1 0 0 1 1883.11 903)">0.3</text></g><g clip-path="url(#clip19)"><text fill="#595959" font-family="Gotham,Gotham_MSFontService,sans-serif" font-weight="400" font-size="41" transform="matrix(1 0 0 1 1857.86 768)">0.35</text></g><g clip-path="url(#clip20)"><text fill="#595959" font-family="Gotham,Gotham_MSFontService,sans-serif" font-weight="400" font-size="41" transform="matrix(1 0 0 1 1967.79 1760)">0</text></g><g clip-path="url(#clip21)"><text fill="#595959" font-family="Gotham,Gotham_MSFontService,sans-serif" font-weight="400" font-size="41" transform="matrix(1 0 0 1 2304.29 1760)">2</text></g><g clip-path="url(#clip22)"><text fill="#595959" font-family="Gotham,Gotham_MSFontService,sans-serif" font-weight="400" font-size="41" transform="matrix(1 0 0 1 2636.9 1760)">4</text></g><g clip-path="url(#clip23)"><text fill="#595959" font-family="Gotham,Gotham_MSFontService,sans-serif" font-weight="400" font-size="41" transform="matrix(1 0 0 1 2971.5 1760)">6</text></g><g clip-path="url(#clip24)"><text fill="#595959" font-family="Gotham,Gotham_MSFontService,sans-serif" font-weight="400" font-size="41" transform="matrix(1 0 0 1 3305.96 1760)">8</text></g><g clip-path="url(#clip25)"><text fill="#595959" font-family="Gotham,Gotham_MSFontService,sans-serif" font-weight="400" font-size="41" transform="matrix(1 0 0 1 3630.93 1760)">10</text></g><g clip-path="url(#clip26)"><text fill="#595959" font-family="Gotham,Gotham_MSFontService,sans-serif" font-weight="400" font-size="41" transform="matrix(1 0 0 1 3967.43 1760)">12</text></g><g clip-path="url(#clip27)"><text fill="#595959" font-family="Gotham,Gotham_MSFontService,sans-serif" font-weight="400" font-size="46" transform="matrix(6.12323e-17 -1 1 6.12323e-17 1832.86 1555)">Fraction of Bill Filled per day</text></g><g clip-path="url(#clip28)"><text fill="#595959" font-family="Gotham,Gotham_MSFontService,sans-serif" font-weight="400" font-size="46" transform="matrix(1 0 0 1 2645.5 1823)">Average Total Flights per day</text></g><g clip-path="url(#clip29)"><text fill="#595959" font-family="Gotham,Gotham_MSFontService,sans-serif" font-weight="400" font-size="64" transform="matrix(1 0 0 1 2089.74 617)">Fraction of Bin filled per day against Average Total </text></g><g clip-path="url(#clip30)"><text fill="#595959" font-family="Gotham,Gotham_MSFontService,sans-serif" font-weight="400" font-size="64" transform="matrix(1 0 0 1 2656.79 686)">Flights per day</text></g><rect x="1734.5" y="525.5" width="2323" height="1362" stroke="#D9D9D9" stroke-width="3.4375" stroke-linejoin="round" stroke-miterlimit="10" fill="none"/></g></svg>